<svg xmlns="http://www.w3.org/2000/svg" viewBox="0 0 512 512" width="512" height="512">
  <!-- 하니비 아이콘 — 연노랑 배경 + 꿀벌 -->
  <rect x="0" y="0" width="512" height="512" rx="96" fill="#F7DE96"/>
  <g transform="translate(256 262) scale(1.46) translate(-256 -167)">
    <g transform="translate(0 38)" stroke="#1A1A1A" stroke-width="8" stroke-linecap="round" stroke-linejoin="round">
      <path d="M 218 92 Q 206 56 222 42" fill="none"/>
      <path d="M 294 92 Q 306 56 290 42" fill="none"/>
      <circle cx="222" cy="40" r="9" fill="#1A1A1A" stroke="none"/>
      <circle cx="290" cy="40" r="9" fill="#1A1A1A" stroke="none"/>
      <path d="M 162 170 Q 162 84 256 84 Q 350 84 350 170 Z" fill="#1A1A1A"/>
      <path d="M 186 165 Q 186 112 256 112 Q 326 112 326 165 Q 326 184 306 190 L 206 190 Q 186 184 186 165 Z" fill="#FCEFD2" stroke-width="0"/>
      <ellipse cx="228" cy="150" rx="11" ry="15" fill="#1A1A1A" stroke="none"/>
      <ellipse cx="284" cy="150" rx="11" ry="15" fill="#1A1A1A" stroke="none"/>
      <circle cx="231" cy="145" r="3.5" fill="#fff" stroke="none"/>
      <circle cx="287" cy="145" r="3.5" fill="#fff" stroke="none"/>
      <circle cx="204" cy="170" r="10" fill="#F0A368" stroke="none" opacity="0.8"/>
      <circle cx="308" cy="170" r="10" fill="#F0A368" stroke="none" opacity="0.8"/>
      <path d="M 240 172 Q 256 190 272 172" fill="none" stroke-width="7"/>
    </g>
  </g>
</svg>
